# xmcd
#
# Track frame offsets:
#	150
#	16119
#	45996
#	76741
#	104060
#	125151
#	143656
#	171301
#	191080
#	207489
#	217331
#	235983
#	266979
#
# Disc length: 3785 seconds
#
# Revision: 0
# Processed by: cddbd v1.5.2PL0 Copyright (c) Steve Scherf et al.
# Submitted via: audiograbber 1.83.01
#
DISCID=c60ec70d
DTITLE=Luca - Luca
DYEAR=2017
DGENRE=Slow Rock
TTITLE0=Wonderful life
TTITLE1=Wake me up
TTITLE2=Loosing my religion
TTITLE3=Wild world
TTITLE4=Lucky Man
TTITLE5=Babylon
TTITLE6=I´m Yours
TTITLE7=With or without you
TTITLE8=The scientist
TTITLE9=Iris
TTITLE10=Wish you were here
TTITLE11=Apologize
TTITLE12=Heaven
EXTD=
EXTT0=
EXTT1=
EXTT2=
EXTT3=
EXTT4=
EXTT5=
EXTT6=
EXTT7=
EXTT8=
EXTT9=
EXTT10=
EXTT11=
EXTT12=
PLAYORDER=
